<svg width="21" height="32" viewBox="0 0 21 32" fill="none" xmlns="http://www.w3.org/2000/svg">
<path d="M3.44994 17.4242C5.19782 17.4242 6.61475 15.846 6.61475 13.8992C6.61475 11.9524 5.19782 10.3742 3.44994 10.3742C1.70206 10.3742 0.285126 11.9524 0.285126 13.8992C0.285126 15.846 1.70206 17.4242 3.44994 17.4242Z" fill="#34495E"/>
<path d="M13.4847 13.8992C13.4847 15.8547 12.0695 17.4242 10.3199 17.4242C8.57024 17.4242 7.15508 15.8547 7.15508 13.8992C7.15508 11.9437 8.57024 10.3742 10.3199 10.3742C12.0695 10.3742 13.4847 11.9437 13.4847 13.8992Z" fill="#34495E"/>
<path d="M10.3199 20.9235C10.3199 22.879 8.90474 24.4486 7.15509 24.4486C5.40544 24.4486 3.99028 22.879 3.99028 20.9235C3.99028 18.968 5.40544 17.3985 7.15509 17.3985C8.90474 17.3985 10.3199 18.968 10.3199 20.9235Z" fill="#34495E"/>
<path d="M13.4847 27.9736C13.4847 29.9034 12.0695 31.4986 10.3199 31.4986C8.57024 31.4986 7.15508 29.9291 7.15508 27.9736C7.15508 26.0181 8.57024 24.4486 10.3199 24.4486C12.0695 24.4486 13.4847 26.0181 13.4847 27.9736Z" fill="#34495E"/>
<path d="M17.1899 20.9235C17.1899 22.879 15.7747 24.4486 14.025 24.4486C12.2754 24.4486 10.8602 22.879 10.8602 20.9235C10.8602 18.968 12.2754 17.3985 14.025 17.3985C15.7747 17.3985 17.1899 18.968 17.1899 20.9235Z" fill="#34495E"/>
<path d="M20.3547 13.8992C20.3547 15.8547 18.9395 17.4242 17.1898 17.4242C15.4402 17.4242 14.025 15.8547 14.025 13.8992C14.025 11.9437 15.4402 10.3742 17.1898 10.3742C18.9395 10.3742 20.3547 11.9437 20.3547 13.8992Z" fill="#34495E"/>
<path d="M10.4228 5.51116C10.0111 4.096 8.90473 2.88668 7.54103 2.32062C7.20653 2.19196 6.79485 2.06331 6.64047 1.72882C6.46036 1.34287 6.6662 0.879725 7.02642 0.622424C7.38664 0.390852 7.82405 0.339394 8.23574 0.287933C8.49304 1.67736 9.70236 2.68084 10.3971 3.91589C11.169 5.27959 11.5035 7.64676 10.5515 9.01046C10.114 8.72743 10.5 7.98125 10.5515 7.5953C10.6544 6.90059 10.6286 6.15441 10.4228 5.48543V5.51116Z" fill="#27AE60"/>
<path d="M13.7677 6.15443C14.8999 5.48544 16.2378 5.71701 17.4986 5.71701C18.0132 5.71701 20.4319 5.58837 20.5348 4.765C20.3289 6.59184 19.5056 9.06194 17.5243 9.55081C16.6238 9.75665 15.6718 9.67946 14.7198 9.57654C13.4075 9.44789 12.121 9.31924 10.8088 9.19059C11.452 8.08419 12.3526 7.10644 13.4075 6.36027C13.5362 6.28308 13.6648 6.20589 13.7677 6.1287V6.15443Z" fill="#27AE60"/>
</svg>
